<?xml version="1.0" standalone="no"?>
<!DOCTYPE svg PUBLIC "-//W3C//DTD SVG 20010904//EN"
 "http://www.w3.org/TR/2001/REC-SVG-20010904/DTD/svg10.dtd">
<svg version="1.0" xmlns="http://www.w3.org/2000/svg"
 width="180.000000pt" height="180.000000pt" viewBox="0 0 180.000000 180.000000"
 preserveAspectRatio="xMidYMid meet">
<metadata>
Created by potrace 1.14, written by Peter Selinger 2001-2017
</metadata>
<g transform="translate(0.000000,180.000000) scale(0.100000,-0.100000)"
fill="#000000" stroke="none">
<path d="M480 1781 c-164 -6 -179 -8 -236 -34 -78 -36 -155 -113 -190 -192
-37 -80 -42 -188 -37 -735 5 -448 12 -530 48 -566 13 -14 15 -14 15 0 0 9 5
16 10 16 6 0 10 6 10 13 0 7 25 30 55 52 30 22 55 43 55 48 0 4 11 7 25 7 14
0 25 4 25 10 0 5 5 9 11 7 6 -1 14 4 17 12 3 9 0 11 -8 6 -9 -5 -11 -4 -6 3 4
6 -1 37 -11 69 -15 50 -18 101 -17 383 0 346 4 390 50 482 44 86 129 150 237
177 61 15 649 16 724 2 115 -23 205 -93 255 -199 27 -56 31 -78 40 -215 13
-197 3 -532 -17 -612 -32 -120 -105 -200 -223 -241 -55 -19 -99 -25 -222 -30
-115 -6 -158 -11 -171 -22 -17 -15 -17 -16 4 -27 12 -6 23 -19 26 -30 2 -11 9
-24 17 -28 8 -4 14 -16 14 -26 0 -10 7 -24 15 -31 9 -7 13 -15 11 -18 -3 -2
-1 -13 5 -23 9 -18 25 -19 217 -19 137 0 226 5 263 14 100 23 183 85 236 174
53 90 54 93 54 698 0 551 -1 563 -22 620 -44 118 -120 193 -240 235 -62 22
-77 23 -464 24 -220 1 -479 -1 -575 -4z"/>
<path d="M655 1431 c-167 -10 -237 -53 -271 -167 -21 -70 -20 -626 1 -707 18
-68 57 -116 80 -97 8 6 19 9 25 5 5 -3 32 -8 59 -9 29 -2 76 -17 113 -34 102
-49 136 -54 369 -50 242 4 275 12 336 81 58 66 63 105 63 452 0 357 -4 386
-69 453 -60 62 -101 70 -368 75 -125 3 -277 2 -338 -2z m628 -112 c26 -12 47
-47 47 -80 0 -31 -44 -69 -80 -69 -19 0 -40 9 -55 25 -16 15 -25 36 -25 55 0
36 38 80 69 80 11 0 31 -5 44 -11z m-300 -94 c244 -63 336 -360 170 -545 -79
-88 -181 -129 -291 -116 -196 23 -330 206 -292 398 15 77 30 108 83 165 60 66
154 108 247 112 14 1 51 -6 83 -14z"/>
<path d="M855 1111 c-103 -25 -167 -105 -168 -210 -1 -123 88 -213 212 -214
123 -1 214 90 214 213 0 98 -66 186 -159 209 -47 12 -55 12 -99 2z"/>
<path d="M465 451 c-3 -5 -1 -12 5 -16 5 -3 10 1 10 9 0 18 -6 21 -15 7z"/>
</g>
</svg>
